<svg width="187.000000" height="48.000000" viewBox="0 0 187 48" fill="none" xmlns="http://www.w3.org/2000/svg" xmlns:xlink="http://www.w3.org/1999/xlink">
    <desc>
        Created with Pixso.
        </desc>
        <defs>
            <clipPath id="clip13_1662">
                <rect id="fi_8146906" rx="0.000000" width="47.000000" height="47.000000" transform="translate(0.500000 0.500000)" fill="white" fill-opacity="0"/>
                </clipPath>
                </defs>
                <rect id="fi_8146906" rx="0.000000" width="47.000000" height="47.000000" transform="translate(0.500000 0.500000)" fill="#FFFFFF" fill-opacity="0"/>
                <g clip-path="url(#clip13_1662)">
                    <path id="Vector" d="M44.94 39.1L34.59 30.34L38.83 26.1C39.11 26.38 39.49 26.54 39.89 26.54C40.29 26.54 40.67 26.38 40.95 26.1L43.07 23.98C43.35 23.7 43.51 23.32 43.51 22.92C43.51 22.52 43.35 22.14 43.07 21.86L32.46 11.25C32.18 10.97 31.8 10.81 31.4 10.81C31.01 10.81 30.62 10.97 30.34 11.25L28.22 13.37C28.08 13.51 27.97 13.68 27.9 13.86C27.82 14.04 27.78 14.24 27.78 14.43C27.78 14.63 27.82 14.83 27.9 15.01C27.97 15.19 28.08 15.35 28.22 15.49L15.49 28.22C15.36 28.08 15.19 27.97 15.01 27.9C14.83 27.82 14.63 27.78 14.43 27.78C14.24 27.78 14.04 27.82 13.86 27.9C13.68 27.97 13.51 28.08 13.37 28.22L11.25 30.34C10.97 30.62 10.81 31.01 10.81 31.4C10.81 31.8 10.97 32.18 11.25 32.46L21.86 43.07C22.14 43.35 22.52 43.51 22.92 43.51C23.32 43.51 23.7 43.35 23.98 43.07L26.1 40.95C26.38 40.67 26.54 40.29 26.54 39.89C26.54 39.49 26.38 39.11 26.1 38.83L30.34 34.59L39.1 44.94C39.47 45.38 39.93 45.73 40.44 45.98C40.96 46.23 41.52 46.38 42.09 46.4C42.66 46.42 43.23 46.33 43.77 46.12C44.3 45.91 44.78 45.59 45.19 45.19C45.59 44.79 45.91 44.3 46.12 43.77C46.33 43.23 46.42 42.66 46.4 42.09C46.37 41.52 46.23 40.96 45.98 40.45C45.73 39.93 45.38 39.47 44.94 39.1Z" fill="#0EA106" fill-opacity="1.000000" fill-rule="nonzero"/>
                    <path id="Vector" d="M28.5 0L4.5 0C3.3 0 2.16 0.47 1.32 1.32C0.47 2.16 0 3.3 0 4.5L0 37.5C0 38.69 0.47 39.83 1.32 40.67C2.16 41.52 3.3 41.99 4.5 42L16.54 42L9.13 34.59C8.71 34.17 8.38 33.67 8.15 33.13C7.93 32.58 7.81 32 7.81 31.41C7.81 30.81 7.93 30.23 8.15 29.68C8.38 29.14 8.71 28.64 9.13 28.23L10.35 27L7.5 27C7.1 27 6.72 26.84 6.43 26.56C6.15 26.27 6 25.89 6 25.5C6 25.1 6.15 24.72 6.43 24.43C6.72 24.15 7.1 24 7.5 24L10.5 24C10.89 24 11.27 24.15 11.56 24.43C11.84 24.72 12 25.1 12 25.5L11.99 25.5C12.79 24.99 13.73 24.74 14.68 24.79L18.62 20.85C18.43 20.94 18.21 20.99 18 21L7.5 21C7.1 21 6.72 20.84 6.43 20.56C6.15 20.27 6 19.89 6 19.5C6 19.1 6.15 18.72 6.43 18.43C6.72 18.15 7.1 18 7.5 18L18 18C18.39 18 18.77 18.15 19.06 18.43C19.34 18.72 19.5 19.1 19.5 19.5C19.49 19.71 19.44 19.93 19.35 20.12L24.79 14.68C24.76 14.05 24.86 13.42 25.08 12.83C25.31 12.23 25.65 11.7 26.1 11.25L28.23 9.13C28.84 8.52 29.61 8.09 30.46 7.91C31.3 7.73 32.18 7.79 33 8.1L33 4.5C32.99 3.3 32.52 2.16 31.67 1.32C30.83 0.47 29.69 0 28.5 0ZM22.5 15L7.5 15C7.1 15 6.72 14.84 6.43 14.56C6.15 14.27 6 13.89 6 13.5C6 13.1 6.15 12.72 6.43 12.43C6.72 12.15 7.1 12 7.5 12L22.5 12C22.89 12 23.27 12.15 23.56 12.43C23.84 12.72 24 13.1 24 13.5C24 13.89 23.84 14.27 23.56 14.56C23.27 14.84 22.89 15 22.5 15ZM25.5 9L7.5 9C7.1 9 6.72 8.84 6.43 8.56C6.15 8.27 6 7.89 6 7.5C6 7.1 6.15 6.72 6.43 6.43C6.72 6.15 7.1 6 7.5 6L25.5 6C25.89 6 26.27 6.15 26.56 6.43C26.84 6.72 27 7.1 27 7.5C27 7.89 26.84 8.27 26.56 8.56C26.27 8.84 25.89 9 25.5 9Z" fill="#0F0F0F" fill-opacity="0.300000" fill-rule="nonzero"/>
                    </g>
                    <path id="Law.BD" d="M66.11 13.21L66.11 37.05L81.15 37.05L81.15 32.73L71.07 32.73L71.07 13.21L66.11 13.21ZM143.23 13.21L143.23 37.05L153.31 37.05C156.09 37.05 158.25 36.4 159.81 35.1C161.37 33.8 162.14 31.97 162.14 29.63C162.14 28.75 162.02 27.92 161.76 27.13C161.5 26.32 161.03 25.57 160.35 24.89C160.1 24.64 159.82 24.41 159.49 24.18Q159.97 23.72 160.29 23.2C160.86 22.24 161.15 21.23 161.15 20.19C161.15 18.71 160.84 17.47 160.22 16.44C159.61 15.4 158.71 14.6 157.54 14.04C156.36 13.49 154.96 13.21 153.31 13.21L143.23 13.21ZM165.33 13.21L165.33 37.05L173.1 37.05C175.68 37.05 177.92 36.54 179.82 35.52Q181.62 34.54 182.91 33.11Q183.66 32.28 184.24 31.29Q184.48 30.88 184.68 30.45Q185.81 28.04 185.81 25.12Q185.81 22.11 184.62 19.68Q184.44 19.32 184.24 18.97Q183.66 17.98 182.91 17.15Q181.62 15.72 179.82 14.75C177.92 13.72 175.68 13.21 173.1 13.21L165.33 13.21ZM153.66 22.17L148.19 22.17L148.19 17.37L153.66 17.37C154.43 17.37 155.04 17.6 155.49 18.04Q155.7 18.24 155.85 18.47Q156.19 19.01 156.19 19.77Q156.19 20.51 155.87 21.05Q155.72 21.31 155.49 21.53C155.04 21.96 154.43 22.17 153.66 22.17ZM173.23 32.73L170.29 32.73L170.29 17.53L173.23 17.53Q175.57 17.53 177.26 18.46C178.39 19.08 179.27 19.95 179.89 21.08C180.53 22.21 180.85 23.56 180.85 25.12C180.85 26.65 180.53 28 179.89 29.15C179.27 30.28 178.39 31.16 177.26 31.8Q175.57 32.73 173.23 32.73ZM85.4 36.83C86.32 37.23 87.4 37.43 88.66 37.43C89.6 37.43 90.46 37.31 91.22 37.05C91.99 36.82 92.68 36.45 93.3 35.96C93.51 35.79 93.71 35.6 93.91 35.4L93.91 37.05L98.39 37.05L98.39 25.53Q98.39 24.05 97.8 22.86Q97.64 22.54 97.43 22.24C96.81 21.28 95.94 20.53 94.81 20Q93.11 19.2 90.9 19.2C89.67 19.2 88.52 19.39 87.48 19.77C86.43 20.16 85.54 20.7 84.79 21.4Q84.29 21.87 83.91 22.43Q83.44 23.11 83.16 23.93L87 25.76Q87.28 25.04 87.75 24.5Q88.04 24.17 88.41 23.9C89.07 23.43 89.83 23.2 90.68 23.2C91.58 23.2 92.28 23.42 92.79 23.87C93.32 24.32 93.59 24.87 93.59 25.53L93.59 26L88.76 26.78C87.37 26.99 86.21 27.36 85.27 27.87C84.35 28.38 83.67 29.02 83.22 29.79C82.78 30.53 82.55 31.4 82.55 32.38C82.55 33.42 82.8 34.33 83.29 35.1C83.78 35.85 84.48 36.42 85.4 36.83ZM93.59 29.53L89.62 30.24C88.94 30.36 88.42 30.59 88.06 30.91C87.69 31.21 87.51 31.64 87.51 32.22C87.51 32.75 87.71 33.17 88.12 33.47Q88.17 33.51 88.23 33.54Q88.81 33.91 89.62 33.91C90.41 33.91 91.11 33.74 91.7 33.4C92.3 33.06 92.76 32.6 93.08 32.03C93.42 31.43 93.59 30.78 93.59 30.08L93.59 29.53ZM100.5 19.58L106.52 37.05L110.68 37.05L114.74 25.85L118.78 37.05L122.94 37.05L128.98 19.58L123.99 19.58L120.59 29.72L116.82 19.58L112.66 19.58L108.87 29.73L105.46 19.58L100.5 19.58ZM153.89 32.73L148.19 32.73L148.19 26.49L153.89 26.49C154.89 26.49 155.69 26.78 156.29 27.36C156.89 27.93 157.18 28.69 157.18 29.63C157.18 30.54 156.89 31.29 156.29 31.87C155.69 32.44 154.89 32.73 153.89 32.73ZM132.19 32.25L132.19 37.05L136.99 37.05L136.99 32.25L132.19 32.25Z" fill="#0F0F0F" fill-opacity="0.800000" fill-rule="evenodd"/>
                </svg>
